<svg width="1443" height="343" viewBox="0 0 1443 343" fill="none" xmlns="http://www.w3.org/2000/svg">
<path d="M1.64551 343C1.64551 343 170.451 317.956 255.833 303.319C341.216 288.682 699.934 222.869 799.402 205.264C898.87 187.66 1441.65 166.792 1441.65 166.792V343H1.64551Z" fill="#FFF5F5"/>
<path d="M1.64551 0C26.5481 280.859 600.189 233.224 1441.65 87.3726V343C1292.43 46.6363 697.182 247.464 1.64551 343V0Z" fill="#4E0B1B"/>
<path d="M1.14551 334.927V88.5022C5.3531 119.701 16.7161 145.529 34.8264 166.572C54.6383 189.592 82.4981 206.854 117.82 219.173C188.446 243.803 289.006 248.7 415.046 240.249C614.895 226.848 878.987 179.873 1189.76 124.594C1270.82 110.176 1355.05 95.1933 1442.15 80.0941V333.413C1404.56 260.191 1339.5 217.582 1252.36 196.349C1164.5 174.942 1054.15 175.254 926.752 187.826C799.35 200.398 654.855 225.236 498.695 252.908C484.655 255.396 470.519 257.907 456.294 260.434C312.47 285.982 159.403 313.173 1.14551 334.927Z" stroke="url(#paint0_linear_104_10)"/>
<defs>
<linearGradient id="paint0_linear_104_10" x1="16.6455" y1="236.5" x2="1442.65" y2="167" gradientUnits="userSpaceOnUse">
<stop stop-color="#F3EED9"/>
<stop offset="1" stop-color="#7B0E27"/>
</linearGradient>
</defs>
</svg>
