<svg width="1440" height="404" viewBox="0 0 1440 404" fill="none" xmlns="http://www.w3.org/2000/svg">
<path d="M0.0917969 164.5C1087.75 395.802 1322.34 208.538 1440.09 12V404C1418.16 208.712 1024.7 79.4363 0.0917969 404V164.5Z" fill="#4E0B1B"/>
<path d="M-1.4082 153.117C216.764 199.4 400.682 228.908 556.264 244.923C395.841 276.627 210.715 324.285 -1.4082 391.318V153.117ZM1083.97 236.2C959.545 261.392 792.332 267.762 563.043 244.609C787.405 200.695 963.048 188.175 1096.34 197.554C1128.87 199.843 1158.87 203.435 1186.44 208.192C1155.9 219.077 1121.93 228.514 1083.97 236.2ZM1351 263.545C1311.45 239.214 1258.36 219.951 1190.32 207.857C1242.55 188.885 1284.65 165.64 1319.41 139.67C1374.56 98.4742 1411.23 50.4427 1440.59 1.79984V384.664C1433.13 338.509 1404.41 296.401 1351 263.545Z" stroke="url(#paint0_linear_128_102)"/>
<defs>
<linearGradient id="paint0_linear_128_102" x1="24.647" y1="162" x2="1473.66" y2="135.892" gradientUnits="userSpaceOnUse">
<stop stop-color="#6A1025"/>
<stop offset="1" stop-color="#F3EED9"/>
</linearGradient>
</defs>
</svg>
