<svg width="1440" height="984" viewBox="0 0 1440 984" fill="none" xmlns="http://www.w3.org/2000/svg">
<path d="M-0.175781 7.00047C-0.175776 8.00436 0.0563782 9.87078 0.08589 10.9497C0.145602 13.1328 0.210979 15.4761 0.286525 17.9347C0.922198 38.6225 3.1576 68.2683 6.37755 93.6947C17.6793 183.056 44.0005 260.205 72.1911 309.215C97.2188 357.02 122.627 390.22 167.355 440.647C323.941 588.809 491.579 662.258 927.886 651.167C1364.19 640.076 1439.98 715.448 1439.98 715.933C1439.98 723.161 1440 984.001 1440 984.001C1308 757.501 1115.7 535.157 -0.300781 866.157C-0.300781 866.157 -0.175888 -13.1259 -0.175781 7.00047Z" fill="#4E0B1B"/>
<path opacity="0.3" d="M1439.94 715.954C1439.94 730.766 1439.99 855.95 1439.99 855.95C1439.99 680.705 1199.52 672.151 919.579 651.239C912.523 651.449 908.485 651.599 908.216 651.609C906.418 651.677 899.183 651.777 886.969 651.969C865.571 652.265 845.245 652.301 821.119 652.022C784.751 651.976 749.93 650.574 738.274 650.049C712.72 648.898 690.207 647.365 669.942 645.726C579.264 637.624 533.918 629.762 462.616 611.382C410.804 597.36 363.995 578.369 327.263 557.878C280.199 534.668 247.334 507.428 216.626 484.026C199.959 470.585 185.279 458.738 170.839 444.347C167.085 440.605 161.496 434.457 157.991 430C156.273 427.815 149.996 421.261 131.813 399.103C125.867 391.637 119.248 383.425 110.098 370.702C86.9727 338.547 75.2834 315.42 63.4219 292.669C-2.25176 166.706 0.0123498 0 0.0123498 0H63.4005C58.7285 568.497 527.799 621.971 919.579 651.239C959.559 650.046 1096.44 646.929 1193.86 656.511C1286.02 663.583 1397.56 682.606 1439.94 715.954Z" fill="#F5E1E6"/>
<path d="M-1.5 298C-1.5 298 149.515 715.652 785.954 668.25C1261.62 632.822 1440.5 668.25 1440.5 668.25" stroke="url(#paint0_radial_93_4)"/>
<path d="M-1 399C-1 399 106.178 710.511 746.387 663.087C1224.88 627.642 1441 640.622 1441 640.622" stroke="url(#paint1_linear_93_4)"/>
<defs>
<radialGradient id="paint0_radial_93_4" cx="0" cy="0" r="1" gradientUnits="userSpaceOnUse" gradientTransform="translate(-29.9803 313.469) rotate(13.4216) scale(1545.67 5944.53)">
<stop stop-color="#F3EED9"/>
<stop offset="1" stop-color="#7B0E27"/>
</radialGradient>
<linearGradient id="paint1_linear_93_4" x1="-21.6072" y1="466.395" x2="1483.16" y2="720.834" gradientUnits="userSpaceOnUse">
<stop stop-color="#BD8183"/>
<stop offset="1" stop-color="#F3EED9"/>
</linearGradient>
</defs>
</svg>
